<mxfile
  host="Electron" 
  agent="Mozilla/5.0 (Macintosh; Intel Mac OS X 10_15_7) AppleWebKit/537.36 (KHTML, like Gecko) draw.io/25.0.2 Chrome/128.0.6613.186 Electron/32.2.5 Safari/537.36" 
  version="25.0.2"
  >
  <diagram
    name="-"
    >
    <mxGraphModel
      grid="1" 
      gridSize="10" 
      guides="1" 
      tooltips="1" 
      connect="1" 
      arrows="1" 
      fold="1" 
      page="1" 
      pageScale="1" 
      pageWidth="1" 
      pageHeight="1" 
      math="0" 
      shadow="0"
      >
      <root>
        <mxCell
          id="page"
          />
        <mxCell
          id="root" 
          parent="page"
          />
        <mxCell
          style="verticalAlign=top;aspect=fixed;align=center;spacingLeft=5;spacingRight=5;spacingBottom=5;strokeColor=none;" 
          id="shape_" 
          parent="root" 
          value=" " 
          vertex="1"
          >
          <mxGeometry
            as="geometry" 
            width="110" 
            height="133" 
            x="0" 
            y="0"
            />
          </mxCell>
        <mxCell
          style="rounded=1;whiteSpace=wrap;verticalAlign=top;align=center;sketch=0;points=[[0.015,0.015,0],[0.985,0.015,0],[0.985,0.985,0],[0.015,0.985,0],[0.25,0,0],[0.5,0,0],[0.75,0,0],[1,0.25,0],[1,0.5,0],[1,0.75,0],[0.75,1,0],[0.5,1,0],[0.25,1,0],[0,0.75,0],[0,0.5,0],[0,0.25,0]];verticalLabelPosition=bottom;html=1;aspect=fixed;pointerEvents=1;shape=mxgraph.cisco19.rect;prIcon=l3_modular;fillColor=#FAFAFA;strokeColor=#005073;" 
          id="l3_modular_" 
          parent="shape_" 
          value=" " 
          vertex="1"
          >
          <mxGeometry
            width="50" 
            height="73" 
            as="geometry" 
            x="30" 
            y="30"
            />
          </mxCell>
        </root>
      </mxGraphModel>
    </diagram>
  </mxfile>